<?xml version="1.0" encoding="UTF-8" standalone="no"?>
<!DOCTYPE svg PUBLIC "-//W3C//DTD SVG 1.1//EN"
 "http://www.w3.org/Graphics/SVG/1.1/DTD/svg11.dtd">
<!-- Generated by graphviz version 2.47.0 (20210316.0004)
 -->
<!-- Title: dependencies Pages: 1 -->
<svg width="1197pt" height="295pt"
 viewBox="0.00 0.00 1197.00 295.00" xmlns="http://www.w3.org/2000/svg" xmlns:xlink="http://www.w3.org/1999/xlink">
<g id="graph0" class="graph" transform="scale(1 1) rotate(0) translate(4 291)">
<title>dependencies</title>
<polygon fill="white" stroke="transparent" points="-4,4 -4,-291 1193,-291 1193,4 -4,4"/>
<text text-anchor="start" x="573.51" y="-42.4" font-family="Times-12" font-weight="bold" font-size="14.00">Legend</text>
<polygon fill="#ffffb3" stroke="transparent" points="360.5,-10 360.5,-30 380.5,-30 380.5,-10 360.5,-10"/>
<text text-anchor="start" x="384.13" y="-15.4" font-family="Times-12" font-size="14.00"> &#160;Declarations</text>
<polygon fill="#8dd3c7" stroke="transparent" points="473.5,-10 473.5,-30 493.5,-30 493.5,-10 473.5,-10"/>
<text text-anchor="start" x="497.23" y="-15.4" font-family="Times-12" font-size="14.00"> &#160;Module</text>
<polygon fill="#80b1d3" stroke="transparent" points="559.5,-10 559.5,-30 579.5,-30 579.5,-10 559.5,-10"/>
<text text-anchor="start" x="583.28" y="-15.4" font-family="Times-12" font-size="14.00"> &#160;Bootstrap</text>
<polygon fill="#fdb462" stroke="transparent" points="656.5,-10 656.5,-30 676.5,-30 676.5,-10 656.5,-10"/>
<text text-anchor="start" x="680.17" y="-15.4" font-family="Times-12" font-size="14.00"> &#160;Providers</text>
<polygon fill="#fb8072" stroke="transparent" points="752.5,-10 752.5,-30 772.5,-30 772.5,-10 752.5,-10"/>
<text text-anchor="start" x="776.23" y="-15.4" font-family="Times-12" font-size="14.00"> &#160;Exports</text>
<g id="clust1" class="cluster">
<title>cluster_AppModule</title>
<polygon fill="none" stroke="black" stroke-dasharray="1,5" points="8,-70 8,-271 525,-271 525,-70 8,-70"/>
</g>
<g id="clust3" class="cluster">
<title>cluster_AppModule_imports</title>
<polygon fill="none" stroke="black" points="16,-78 16,-195 517,-195 517,-78 16,-78"/>
</g>
<g id="clust7" class="cluster">
<title>cluster_CommonModule</title>
<polygon fill="none" stroke="black" stroke-dasharray="1,5" points="533,-135 533,-203 855,-203 855,-135 533,-135"/>
</g>
<g id="clust10" class="cluster">
<title>cluster_CommonModule_exports</title>
<polygon fill="none" stroke="black" points="717,-143 717,-195 847,-195 847,-143 717,-143"/>
</g>
<g id="clust12" class="cluster">
<title>cluster_CommonModule_providers</title>
<polygon fill="none" stroke="black" points="541,-143 541,-195 709,-195 709,-143 541,-143"/>
</g>
<g id="clust25" class="cluster">
<title>cluster_HandlersModule</title>
<polygon fill="none" stroke="black" stroke-dasharray="1,5" points="863,-135 863,-203 1181,-203 1181,-135 863,-135"/>
</g>
<g id="clust28" class="cluster">
<title>cluster_HandlersModule_exports</title>
<polygon fill="none" stroke="black" points="1045,-143 1045,-195 1173,-195 1173,-143 1045,-143"/>
</g>
<g id="clust30" class="cluster">
<title>cluster_HandlersModule_providers</title>
<polygon fill="none" stroke="black" points="871,-143 871,-195 1037,-195 1037,-143 871,-143"/>
</g>
<g id="clust31" class="cluster">
<title>cluster_StreamsModule</title>
<polygon fill="none" stroke="black" stroke-dasharray="1,5" points="533,-211 533,-279 837,-279 837,-211 533,-211"/>
</g>
<g id="clust34" class="cluster">
<title>cluster_StreamsModule_exports</title>
<polygon fill="none" stroke="black" points="707,-219 707,-271 829,-271 829,-219 707,-219"/>
</g>
<g id="clust36" class="cluster">
<title>cluster_StreamsModule_providers</title>
<polygon fill="none" stroke="black" points="541,-219 541,-271 699,-271 699,-219 541,-219"/>
</g>
<!-- CommonModule -->
<g id="node1" class="node">
<title>CommonModule</title>
<polygon fill="#8dd3c7" stroke="black" points="380.67,-122 377.67,-126 356.67,-126 353.67,-122 269.33,-122 269.33,-86 380.67,-86 380.67,-122"/>
<text text-anchor="middle" x="325" y="-99.8" font-family="Times,serif" font-size="14.00">CommonModule</text>
</g>
<!-- AppModule -->
<g id="node6" class="node">
<title>AppModule</title>
<polygon fill="#8dd3c7" stroke="black" points="366.66,-263 363.66,-267 342.66,-267 339.66,-263 283.34,-263 283.34,-227 366.66,-227 366.66,-263"/>
<text text-anchor="middle" x="325" y="-240.8" font-family="Times,serif" font-size="14.00">AppModule</text>
</g>
<!-- CommonModule&#45;&gt;AppModule -->
<g id="edge1" class="edge">
<title>CommonModule&#45;&gt;AppModule</title>
<path fill="none" stroke="black" d="M311.06,-122.14C311.06,-122.14 311.06,-216.93 311.06,-216.93"/>
<polygon fill="black" stroke="black" points="307.56,-216.92 311.06,-226.93 314.56,-216.93 307.56,-216.92"/>
</g>
<!-- CommonService  -->
<g id="node7" class="node">
<title>CommonService </title>
<polygon fill="#fb8072" stroke="black" points="838.6,-187 725.4,-187 725.4,-151 838.6,-151 838.6,-187"/>
<text text-anchor="middle" x="782" y="-164.8" font-family="Times,serif" font-size="14.00">CommonService </text>
</g>
<!-- CommonModule&#45;&gt;CommonService  -->
<g id="edge6" class="edge">
<title>CommonModule&#45;&gt;CommonService </title>
<path fill="none" stroke="black" stroke-dasharray="5,2" d="M371.5,-122.21C371.5,-127.55 371.5,-132 371.5,-132 371.5,-132 782,-132 782,-132 782,-132 782,-140.93 782,-140.93"/>
<polygon fill="black" stroke="black" points="778.5,-140.93 782,-150.93 785.5,-140.93 778.5,-140.93"/>
</g>
<!-- ConfigModule -->
<g id="node2" class="node">
<title>ConfigModule</title>
<polygon fill="#8dd3c7" stroke="black" points="122.44,-122 119.44,-126 98.44,-126 95.44,-122 23.56,-122 23.56,-86 122.44,-86 122.44,-122"/>
<text text-anchor="middle" x="73" y="-99.8" font-family="Times,serif" font-size="14.00">ConfigModule</text>
</g>
<!-- ConfigModule&#45;&gt;AppModule -->
<g id="edge2" class="edge">
<title>ConfigModule&#45;&gt;AppModule</title>
<path fill="none" stroke="black" d="M73,-122.03C73,-161.28 73,-251 73,-251 73,-251 273.1,-251 273.1,-251"/>
<polygon fill="black" stroke="black" points="273.1,-254.5 283.1,-251 273.1,-247.5 273.1,-254.5"/>
</g>
<!-- DatabaseModule -->
<g id="node3" class="node">
<title>DatabaseModule</title>
<polygon fill="#8dd3c7" stroke="black" points="251.35,-122 248.35,-126 227.35,-126 224.35,-122 140.65,-122 140.65,-86 251.35,-86 251.35,-122"/>
<text text-anchor="middle" x="196" y="-99.8" font-family="Times,serif" font-size="14.00">DatabaseModule</text>
</g>
<!-- DatabaseModule&#45;&gt;AppModule -->
<g id="edge3" class="edge">
<title>DatabaseModule&#45;&gt;AppModule</title>
<path fill="none" stroke="black" d="M196,-122.21C196,-159.06 196,-239 196,-239 196,-239 273.12,-239 273.12,-239"/>
<polygon fill="black" stroke="black" points="273.12,-242.5 283.12,-239 273.12,-235.5 273.12,-242.5"/>
</g>
<!-- HandlersModule -->
<g id="node4" class="node">
<title>HandlersModule</title>
<polygon fill="#8dd3c7" stroke="black" points="509.08,-122 506.08,-126 485.08,-126 482.08,-122 398.92,-122 398.92,-86 509.08,-86 509.08,-122"/>
<text text-anchor="middle" x="454" y="-99.8" font-family="Times,serif" font-size="14.00">HandlersModule</text>
</g>
<!-- StreamsModule -->
<g id="node5" class="node">
<title>StreamsModule</title>
<polygon fill="#8dd3c7" stroke="black" points="507.15,-187 504.15,-191 483.15,-191 480.15,-187 402.85,-187 402.85,-151 507.15,-151 507.15,-187"/>
<text text-anchor="middle" x="455" y="-164.8" font-family="Times,serif" font-size="14.00">StreamsModule</text>
</g>
<!-- HandlersModule&#45;&gt;StreamsModule -->
<g id="edge10" class="edge">
<title>HandlersModule&#45;&gt;StreamsModule</title>
<path fill="none" stroke="black" d="M455,-122.11C455,-122.11 455,-140.99 455,-140.99"/>
<polygon fill="black" stroke="black" points="451.5,-140.99 455,-150.99 458.5,-140.99 451.5,-140.99"/>
</g>
<!-- HandlersModule&#45;&gt;AppModule -->
<g id="edge4" class="edge">
<title>HandlersModule&#45;&gt;AppModule</title>
<path fill="none" stroke="black" d="M398.81,-104C393.42,-104 389.9,-104 389.9,-104 389.9,-104 389.9,-239 389.9,-239 389.9,-239 376.83,-239 376.83,-239"/>
<polygon fill="black" stroke="black" points="376.83,-235.5 366.83,-239 376.83,-242.5 376.83,-235.5"/>
</g>
<!-- HandlersService  -->
<g id="node9" class="node">
<title>HandlersService </title>
<polygon fill="#fb8072" stroke="black" points="1165.01,-187 1052.99,-187 1052.99,-151 1165.01,-151 1165.01,-187"/>
<text text-anchor="middle" x="1109" y="-164.8" font-family="Times,serif" font-size="14.00">HandlersService </text>
</g>
<!-- HandlersModule&#45;&gt;HandlersService  -->
<g id="edge8" class="edge">
<title>HandlersModule&#45;&gt;HandlersService </title>
<path fill="none" stroke="black" stroke-dasharray="5,2" d="M509.28,-98C667.19,-98 1109,-98 1109,-98 1109,-98 1109,-140.72 1109,-140.72"/>
<polygon fill="black" stroke="black" points="1105.5,-140.72 1109,-150.72 1112.5,-140.72 1105.5,-140.72"/>
</g>
<!-- StreamsModule&#45;&gt;AppModule -->
<g id="edge5" class="edge">
<title>StreamsModule&#45;&gt;AppModule</title>
<path fill="none" stroke="black" d="M402.74,-169C371.94,-169 338.94,-169 338.94,-169 338.94,-169 338.94,-216.99 338.94,-216.99"/>
<polygon fill="black" stroke="black" points="335.44,-216.99 338.94,-226.99 342.44,-216.99 335.44,-216.99"/>
</g>
<!-- StreamsService  -->
<g id="node11" class="node">
<title>StreamsService </title>
<polygon fill="#fb8072" stroke="black" points="821.08,-263 714.92,-263 714.92,-227 821.08,-227 821.08,-263"/>
<text text-anchor="middle" x="768" y="-240.8" font-family="Times,serif" font-size="14.00">StreamsService </text>
</g>
<!-- StreamsModule&#45;&gt;StreamsService  -->
<g id="edge11" class="edge">
<title>StreamsModule&#45;&gt;StreamsService </title>
<path fill="none" stroke="black" stroke-dasharray="5,2" d="M437.56,-187.11C437.56,-196.9 437.56,-207 437.56,-207 437.56,-207 719.96,-207 719.96,-207 719.96,-207 719.96,-216.89 719.96,-216.89"/>
<polygon fill="black" stroke="black" points="716.46,-216.89 719.96,-226.89 723.46,-216.89 716.46,-216.89"/>
</g>
<!-- CommonService -->
<g id="node8" class="node">
<title>CommonService</title>
<ellipse fill="#fdb462" stroke="black" cx="625" cy="-169" rx="75.88" ry="18"/>
<text text-anchor="middle" x="625" y="-164.8" font-family="Times,serif" font-size="14.00">CommonService</text>
</g>
<!-- CommonService&#45;&gt;CommonModule -->
<g id="edge7" class="edge">
<title>CommonService&#45;&gt;CommonModule</title>
<path fill="none" stroke="black" d="M625,-150.84C625,-145.96 625,-142 625,-142 625,-142 376.17,-142 376.17,-142 376.17,-142 376.17,-132.11 376.17,-132.11"/>
<polygon fill="black" stroke="black" points="379.67,-132.11 376.17,-122.11 372.67,-132.11 379.67,-132.11"/>
</g>
<!-- HandlersService -->
<g id="node10" class="node">
<title>HandlersService</title>
<ellipse fill="#fdb462" stroke="black" cx="954" cy="-169" rx="74.7" ry="18"/>
<text text-anchor="middle" x="954" y="-164.8" font-family="Times,serif" font-size="14.00">HandlersService</text>
</g>
<!-- HandlersService&#45;&gt;HandlersModule -->
<g id="edge9" class="edge">
<title>HandlersService&#45;&gt;HandlersModule</title>
<path fill="none" stroke="black" d="M954,-150.98C954,-133.63 954,-110 954,-110 954,-110 519.42,-110 519.42,-110"/>
<polygon fill="black" stroke="black" points="519.42,-106.5 509.42,-110 519.42,-113.5 519.42,-106.5"/>
</g>
<!-- StreamsService -->
<g id="node12" class="node">
<title>StreamsService</title>
<ellipse fill="#fdb462" stroke="black" cx="620" cy="-245" rx="71.2" ry="18"/>
<text text-anchor="middle" x="620" y="-240.8" font-family="Times,serif" font-size="14.00">StreamsService</text>
</g>
<!-- StreamsService&#45;&gt;StreamsModule -->
<g id="edge12" class="edge">
<title>StreamsService&#45;&gt;StreamsModule</title>
<path fill="none" stroke="black" d="M552.7,-251C513.78,-251 472.44,-251 472.44,-251 472.44,-251 472.44,-197.2 472.44,-197.2"/>
<polygon fill="black" stroke="black" points="475.94,-197.2 472.44,-187.2 468.94,-197.2 475.94,-197.2"/>
</g>
</g>
</svg>
