<?xml version="1.0" encoding="UTF-8" standalone="no"?>
<!DOCTYPE svg PUBLIC "-//W3C//DTD SVG 1.1//EN"
 "http://www.w3.org/Graphics/SVG/1.1/DTD/svg11.dtd">
<!-- Generated by graphviz version 2.47.0 (20210316.0004)
 -->
<!-- Title: dependencies Pages: 1 -->
<svg width="663pt" height="211pt"
 viewBox="0.00 0.00 663.00 211.00" xmlns="http://www.w3.org/2000/svg" xmlns:xlink="http://www.w3.org/1999/xlink">
<g id="graph0" class="graph" transform="scale(1 1) rotate(0) translate(4 207)">
<title>dependencies</title>
<polygon fill="white" stroke="transparent" points="-4,4 -4,-207 659,-207 659,4 -4,4"/>
<text text-anchor="start" x="306.51" y="-42.4" font-family="Times-12" font-weight="bold" font-size="14.00">Legend</text>
<polygon fill="#ffffb3" stroke="transparent" points="93.5,-10 93.5,-30 113.5,-30 113.5,-10 93.5,-10"/>
<text text-anchor="start" x="117.13" y="-15.4" font-family="Times-12" font-size="14.00"> &#160;Declarations</text>
<polygon fill="#8dd3c7" stroke="transparent" points="206.5,-10 206.5,-30 226.5,-30 226.5,-10 206.5,-10"/>
<text text-anchor="start" x="230.23" y="-15.4" font-family="Times-12" font-size="14.00"> &#160;Module</text>
<polygon fill="#80b1d3" stroke="transparent" points="292.5,-10 292.5,-30 312.5,-30 312.5,-10 292.5,-10"/>
<text text-anchor="start" x="316.28" y="-15.4" font-family="Times-12" font-size="14.00"> &#160;Bootstrap</text>
<polygon fill="#fdb462" stroke="transparent" points="389.5,-10 389.5,-30 409.5,-30 409.5,-10 389.5,-10"/>
<text text-anchor="start" x="413.17" y="-15.4" font-family="Times-12" font-size="14.00"> &#160;Providers</text>
<polygon fill="#fb8072" stroke="transparent" points="485.5,-10 485.5,-30 505.5,-30 505.5,-10 485.5,-10"/>
<text text-anchor="start" x="509.23" y="-15.4" font-family="Times-12" font-size="14.00"> &#160;Exports</text>
<g id="clust1" class="cluster">
<title>cluster_AppModule</title>
<polygon fill="none" stroke="black" stroke-dasharray="1,5" points="8,-70 8,-195 647,-195 647,-70 8,-70"/>
</g>
<g id="clust3" class="cluster">
<title>cluster_AppModule_imports</title>
<polygon fill="none" stroke="black" points="16,-78 16,-130 639,-130 639,-78 16,-78"/>
</g>
<!-- CommonModule -->
<g id="node1" class="node">
<title>CommonModule</title>
<polygon fill="#8dd3c7" stroke="black" points="630.67,-122 627.67,-126 606.67,-126 603.67,-122 519.33,-122 519.33,-86 630.67,-86 630.67,-122"/>
<text text-anchor="middle" x="575" y="-99.8" font-family="Times,serif" font-size="14.00">CommonModule</text>
</g>
<!-- AppModule -->
<g id="node6" class="node">
<title>AppModule</title>
<polygon fill="#8dd3c7" stroke="black" points="370.66,-187 367.66,-191 346.66,-191 343.66,-187 287.34,-187 287.34,-151 370.66,-151 370.66,-187"/>
<text text-anchor="middle" x="329" y="-164.8" font-family="Times,serif" font-size="14.00">AppModule</text>
</g>
<!-- CommonModule&#45;&gt;AppModule -->
<g id="edge1" class="edge">
<title>CommonModule&#45;&gt;AppModule</title>
<path fill="none" stroke="black" d="M575,-122.28C575,-143.32 575,-175 575,-175 575,-175 380.73,-175 380.73,-175"/>
<polygon fill="black" stroke="black" points="380.73,-171.5 370.73,-175 380.73,-178.5 380.73,-171.5"/>
</g>
<!-- ConfigModule -->
<g id="node2" class="node">
<title>ConfigModule</title>
<polygon fill="#8dd3c7" stroke="black" points="501.44,-122 498.44,-126 477.44,-126 474.44,-122 402.56,-122 402.56,-86 501.44,-86 501.44,-122"/>
<text text-anchor="middle" x="452" y="-99.8" font-family="Times,serif" font-size="14.00">ConfigModule</text>
</g>
<!-- ConfigModule&#45;&gt;AppModule -->
<g id="edge2" class="edge">
<title>ConfigModule&#45;&gt;AppModule</title>
<path fill="none" stroke="black" d="M452,-122.02C452,-139.37 452,-163 452,-163 452,-163 380.99,-163 380.99,-163"/>
<polygon fill="black" stroke="black" points="380.99,-159.5 370.99,-163 380.99,-166.5 380.99,-159.5"/>
</g>
<!-- DatabaseModule -->
<g id="node3" class="node">
<title>DatabaseModule</title>
<polygon fill="#8dd3c7" stroke="black" points="384.35,-122 381.35,-126 360.35,-126 357.35,-122 273.65,-122 273.65,-86 384.35,-86 384.35,-122"/>
<text text-anchor="middle" x="329" y="-99.8" font-family="Times,serif" font-size="14.00">DatabaseModule</text>
</g>
<!-- DatabaseModule&#45;&gt;AppModule -->
<g id="edge3" class="edge">
<title>DatabaseModule&#45;&gt;AppModule</title>
<path fill="none" stroke="black" d="M329,-122.11C329,-122.11 329,-140.99 329,-140.99"/>
<polygon fill="black" stroke="black" points="325.5,-140.99 329,-150.99 332.5,-140.99 325.5,-140.99"/>
</g>
<!-- HandlersModule -->
<g id="node4" class="node">
<title>HandlersModule</title>
<polygon fill="#8dd3c7" stroke="black" points="256.08,-122 253.08,-126 232.08,-126 229.08,-122 145.92,-122 145.92,-86 256.08,-86 256.08,-122"/>
<text text-anchor="middle" x="201" y="-99.8" font-family="Times,serif" font-size="14.00">HandlersModule</text>
</g>
<!-- HandlersModule&#45;&gt;AppModule -->
<g id="edge4" class="edge">
<title>HandlersModule&#45;&gt;AppModule</title>
<path fill="none" stroke="black" d="M201,-122.02C201,-139.37 201,-163 201,-163 201,-163 277.09,-163 277.09,-163"/>
<polygon fill="black" stroke="black" points="277.09,-166.5 287.09,-163 277.09,-159.5 277.09,-166.5"/>
</g>
<!-- StreamsModule -->
<g id="node5" class="node">
<title>StreamsModule</title>
<polygon fill="#8dd3c7" stroke="black" points="128.15,-122 125.15,-126 104.15,-126 101.15,-122 23.85,-122 23.85,-86 128.15,-86 128.15,-122"/>
<text text-anchor="middle" x="76" y="-99.8" font-family="Times,serif" font-size="14.00">StreamsModule</text>
</g>
<!-- StreamsModule&#45;&gt;AppModule -->
<g id="edge5" class="edge">
<title>StreamsModule&#45;&gt;AppModule</title>
<path fill="none" stroke="black" d="M76,-122.28C76,-143.32 76,-175 76,-175 76,-175 277.22,-175 277.22,-175"/>
<polygon fill="black" stroke="black" points="277.22,-178.5 287.22,-175 277.22,-171.5 277.22,-178.5"/>
</g>
</g>
</svg>
